<mxfile host="app.diagrams.net" modified="2020-11-14T14:48:22.566Z" agent="5.0 (Windows NT 10.0; Win64; x64) AppleWebKit/537.36 (KHTML, like Gecko) Chrome/86.0.4240.75 Safari/537.36" etag="TRA4N6M9RHfI1iU6zDQN" version="13.9.7" type="github">
  <diagram id="Dt-n7CvwIzoy5N6NGjfN" name="第 1 页">
    <mxGraphModel dx="2889" dy="1067" grid="1" gridSize="10" guides="1" tooltips="1" connect="1" arrows="1" fold="1" page="1" pageScale="1" pageWidth="827" pageHeight="1169" math="0" shadow="0">
      <root>
        <mxCell id="0" />
        <mxCell id="1" parent="0" />
        <mxCell id="KDakEp-u5BZa94NeNfbz-28" value="" style="group" parent="1" vertex="1" connectable="0">
          <mxGeometry x="-670" y="650" width="440" height="420" as="geometry" />
        </mxCell>
        <mxCell id="KDakEp-u5BZa94NeNfbz-2" value="库表数据对齐" style="swimlane;childLayout=stackLayout;resizeParent=1;resizeParentMax=0;startSize=20;rounded=1;shadow=0;glass=0;html=1;" parent="KDakEp-u5BZa94NeNfbz-28" vertex="1">
          <mxGeometry width="440" height="420" as="geometry" />
        </mxCell>
        <mxCell id="KDakEp-u5BZa94NeNfbz-3" value="找靓机靓选业务商品表" style="swimlane;html=1;startSize=20;" parent="KDakEp-u5BZa94NeNfbz-2" vertex="1">
          <mxGeometry y="20" width="210" height="400" as="geometry" />
        </mxCell>
        <mxCell id="KDakEp-u5BZa94NeNfbz-4" value="×" style="text;html=1;strokeColor=none;fillColor=none;align=center;verticalAlign=middle;whiteSpace=wrap;rounded=0;shadow=0;glass=0;" parent="KDakEp-u5BZa94NeNfbz-3" vertex="1">
          <mxGeometry x="10" y="235" width="40" height="20" as="geometry" />
        </mxCell>
        <mxCell id="KDakEp-u5BZa94NeNfbz-5" value="×" style="text;html=1;strokeColor=none;fillColor=none;align=center;verticalAlign=middle;whiteSpace=wrap;rounded=0;shadow=0;glass=0;" parent="KDakEp-u5BZa94NeNfbz-3" vertex="1">
          <mxGeometry x="10" y="185" width="40" height="20" as="geometry" />
        </mxCell>
        <mxCell id="KDakEp-u5BZa94NeNfbz-6" value="×" style="text;html=1;strokeColor=none;fillColor=none;align=center;verticalAlign=middle;whiteSpace=wrap;rounded=0;shadow=0;glass=0;" parent="KDakEp-u5BZa94NeNfbz-3" vertex="1">
          <mxGeometry x="10" y="85" width="40" height="20" as="geometry" />
        </mxCell>
        <mxCell id="KDakEp-u5BZa94NeNfbz-7" value="pdi_product_category" style="whiteSpace=wrap;html=1;rounded=1;shadow=0;glass=0;fillColor=#fad9d5;strokeColor=#ae4132;" parent="KDakEp-u5BZa94NeNfbz-3" vertex="1">
          <mxGeometry x="50" y="80" width="120" height="30" as="geometry" />
        </mxCell>
        <mxCell id="KDakEp-u5BZa94NeNfbz-8" value="pdi_product" style="whiteSpace=wrap;html=1;rounded=1;shadow=0;glass=0;fillColor=#d5e8d4;strokeColor=#82b366;" parent="KDakEp-u5BZa94NeNfbz-3" vertex="1">
          <mxGeometry x="50" y="30" width="120" height="30" as="geometry" />
        </mxCell>
        <mxCell id="KDakEp-u5BZa94NeNfbz-9" value="pdi_product_sku" style="whiteSpace=wrap;html=1;rounded=1;shadow=0;glass=0;fillColor=#d5e8d4;strokeColor=#82b366;" parent="KDakEp-u5BZa94NeNfbz-3" vertex="1">
          <mxGeometry x="50" y="130" width="120" height="30" as="geometry" />
        </mxCell>
        <mxCell id="KDakEp-u5BZa94NeNfbz-10" value="pdi_product_sku_tmp" style="whiteSpace=wrap;html=1;rounded=1;shadow=0;glass=0;fillColor=#fad9d5;strokeColor=#ae4132;" parent="KDakEp-u5BZa94NeNfbz-3" vertex="1">
          <mxGeometry x="50" y="180" width="120" height="30" as="geometry" />
        </mxCell>
        <mxCell id="KDakEp-u5BZa94NeNfbz-11" value="pdi_product_sku_tmp" style="whiteSpace=wrap;html=1;rounded=1;shadow=0;glass=0;fillColor=#fad9d5;strokeColor=#ae4132;" parent="KDakEp-u5BZa94NeNfbz-3" vertex="1">
          <mxGeometry x="50" y="230" width="120" height="30" as="geometry" />
        </mxCell>
        <mxCell id="KDakEp-u5BZa94NeNfbz-12" value="转转商品表" style="swimlane;html=1;startSize=20;swimlaneLine=1;" parent="KDakEp-u5BZa94NeNfbz-2" vertex="1">
          <mxGeometry x="210" y="20" width="230" height="400" as="geometry" />
        </mxCell>
        <mxCell id="KDakEp-u5BZa94NeNfbz-13" value="......." style="whiteSpace=wrap;html=1;rounded=1;shadow=0;glass=0;fillColor=#dae8fc;strokeColor=#6c8ebf;" parent="KDakEp-u5BZa94NeNfbz-12" vertex="1">
          <mxGeometry x="35" y="330" width="120" height="30" as="geometry" />
        </mxCell>
        <mxCell id="KDakEp-u5BZa94NeNfbz-14" value="t_info_busin" style="whiteSpace=wrap;html=1;rounded=1;shadow=0;glass=0;fillColor=#dae8fc;strokeColor=#6c8ebf;" parent="KDakEp-u5BZa94NeNfbz-12" vertex="1">
          <mxGeometry x="35" y="80" width="120" height="30" as="geometry" />
        </mxCell>
        <mxCell id="KDakEp-u5BZa94NeNfbz-15" value="t_info" style="whiteSpace=wrap;html=1;rounded=1;shadow=0;glass=0;fillColor=#dae8fc;strokeColor=#6c8ebf;" parent="KDakEp-u5BZa94NeNfbz-12" vertex="1">
          <mxGeometry x="35" y="30" width="120" height="30" as="geometry" />
        </mxCell>
        <mxCell id="KDakEp-u5BZa94NeNfbz-16" value="t_info_extra" style="whiteSpace=wrap;html=1;rounded=1;shadow=0;glass=0;fillColor=#dae8fc;strokeColor=#6c8ebf;" parent="KDakEp-u5BZa94NeNfbz-12" vertex="1">
          <mxGeometry x="35" y="130" width="120" height="30" as="geometry" />
        </mxCell>
        <mxCell id="KDakEp-u5BZa94NeNfbz-17" value="t_info_stock" style="whiteSpace=wrap;html=1;rounded=1;shadow=0;glass=0;fillColor=#dae8fc;strokeColor=#6c8ebf;" parent="KDakEp-u5BZa94NeNfbz-12" vertex="1">
          <mxGeometry x="35" y="180" width="120" height="30" as="geometry" />
        </mxCell>
        <mxCell id="KDakEp-u5BZa94NeNfbz-18" value="t_spu_info" style="whiteSpace=wrap;html=1;rounded=1;shadow=0;glass=0;fillColor=#dae8fc;strokeColor=#6c8ebf;" parent="KDakEp-u5BZa94NeNfbz-12" vertex="1">
          <mxGeometry x="35" y="230" width="120" height="30" as="geometry" />
        </mxCell>
        <mxCell id="KDakEp-u5BZa94NeNfbz-19" value="t_spud_info" style="whiteSpace=wrap;html=1;rounded=1;shadow=0;glass=0;fillColor=#dae8fc;strokeColor=#6c8ebf;" parent="KDakEp-u5BZa94NeNfbz-12" vertex="1">
          <mxGeometry x="35" y="280" width="120" height="30" as="geometry" />
        </mxCell>
        <mxCell id="KDakEp-u5BZa94NeNfbz-20" value="基准" style="text;html=1;strokeColor=none;fillColor=none;align=center;verticalAlign=middle;whiteSpace=wrap;rounded=0;shadow=0;glass=0;" parent="KDakEp-u5BZa94NeNfbz-12" vertex="1">
          <mxGeometry x="180" y="50" width="20" height="280" as="geometry" />
        </mxCell>
        <mxCell id="KDakEp-u5BZa94NeNfbz-21" style="orthogonalLoop=1;jettySize=auto;html=1;exitX=1;exitY=0.5;exitDx=0;exitDy=0;entryX=0;entryY=0.5;entryDx=0;entryDy=0;shadow=0;rounded=0;jumpStyle=none;" parent="KDakEp-u5BZa94NeNfbz-2" source="KDakEp-u5BZa94NeNfbz-8" target="KDakEp-u5BZa94NeNfbz-18" edge="1">
          <mxGeometry relative="1" as="geometry" />
        </mxCell>
        <mxCell id="KDakEp-u5BZa94NeNfbz-22" style="edgeStyle=none;rounded=0;jumpStyle=none;orthogonalLoop=1;jettySize=auto;html=1;entryX=0;entryY=0.5;entryDx=0;entryDy=0;shadow=0;strokeColor=#000000;" parent="KDakEp-u5BZa94NeNfbz-2" target="KDakEp-u5BZa94NeNfbz-15" edge="1">
          <mxGeometry relative="1" as="geometry">
            <mxPoint x="170" y="165" as="sourcePoint" />
          </mxGeometry>
        </mxCell>
        <mxCell id="KDakEp-u5BZa94NeNfbz-23" style="edgeStyle=none;rounded=0;jumpStyle=none;orthogonalLoop=1;jettySize=auto;html=1;entryX=0;entryY=0.5;entryDx=0;entryDy=0;shadow=0;strokeColor=#000000;" parent="KDakEp-u5BZa94NeNfbz-2" target="KDakEp-u5BZa94NeNfbz-14" edge="1">
          <mxGeometry relative="1" as="geometry">
            <mxPoint x="170" y="165" as="sourcePoint" />
          </mxGeometry>
        </mxCell>
        <mxCell id="KDakEp-u5BZa94NeNfbz-24" style="edgeStyle=none;rounded=0;jumpStyle=none;orthogonalLoop=1;jettySize=auto;html=1;exitX=1;exitY=0.5;exitDx=0;exitDy=0;entryX=0;entryY=0.5;entryDx=0;entryDy=0;shadow=0;strokeColor=#000000;" parent="KDakEp-u5BZa94NeNfbz-2" source="KDakEp-u5BZa94NeNfbz-9" target="KDakEp-u5BZa94NeNfbz-16" edge="1">
          <mxGeometry relative="1" as="geometry" />
        </mxCell>
        <mxCell id="KDakEp-u5BZa94NeNfbz-25" style="edgeStyle=none;rounded=0;jumpStyle=none;orthogonalLoop=1;jettySize=auto;html=1;exitX=1;exitY=0.75;exitDx=0;exitDy=0;entryX=0;entryY=0.5;entryDx=0;entryDy=0;shadow=0;strokeColor=#000000;" parent="KDakEp-u5BZa94NeNfbz-2" source="KDakEp-u5BZa94NeNfbz-9" target="KDakEp-u5BZa94NeNfbz-17" edge="1">
          <mxGeometry relative="1" as="geometry" />
        </mxCell>
        <mxCell id="KDakEp-u5BZa94NeNfbz-26" style="edgeStyle=none;rounded=0;jumpStyle=none;orthogonalLoop=1;jettySize=auto;html=1;exitX=1;exitY=0.75;exitDx=0;exitDy=0;entryX=0;entryY=0.75;entryDx=0;entryDy=0;shadow=0;strokeColor=#000000;" parent="KDakEp-u5BZa94NeNfbz-2" source="KDakEp-u5BZa94NeNfbz-8" target="KDakEp-u5BZa94NeNfbz-19" edge="1">
          <mxGeometry relative="1" as="geometry" />
        </mxCell>
      </root>
    </mxGraphModel>
  </diagram>
</mxfile>
